<?xml version="1.0" encoding="UTF-8" standalone="no"?>
<svg
   width="24px"
   height="31px"
   viewBox="0 0 24 31"
   version="1.1"
   id="svg7"
   sodipodi:docname="cmsis-icn-light.svg"
   inkscape:version="1.4.2 (ebf0e940, 2025-05-08)"
   xmlns:inkscape="http://www.inkscape.org/namespaces/inkscape"
   xmlns:sodipodi="http://sodipodi.sourceforge.net/DTD/sodipodi-0.dtd"
   xmlns="http://www.w3.org/2000/svg"
   xmlns:svg="http://www.w3.org/2000/svg">
  <defs
     id="defs7" />
  <sodipodi:namedview
     id="namedview7"
     pagecolor="#ffffff"
     bordercolor="#000000"
     borderopacity="0.25"
     inkscape:showpageshadow="2"
     inkscape:pageopacity="0.0"
     inkscape:pagecheckerboard="0"
     inkscape:deskcolor="#d1d1d1"
     inkscape:zoom="4.7444584"
     inkscape:cx="12.119402"
     inkscape:cy="15.70253"
     inkscape:window-width="1280"
     inkscape:window-height="630"
     inkscape:window-x="397"
     inkscape:window-y="309"
     inkscape:window-maximized="0"
     inkscape:current-layer="cmsis" />
  <title
     id="title1">vscode extension icons-4 2</title>
  <g
     id="Icon-development"
     stroke="none"
     stroke-width="1"
     fill="none"
     fill-rule="evenodd"
     fill-opacity="0.8">
    <g
       id="cmsis"
       transform="translate(-12.000000, -268.000000)"
       fill="black"
       fill-rule="nonzero">
      <g
         id="Group"
         transform="translate(12.000000, 268.040707)">
        <path
           d="M9.35469168,18.1050101 C6.13986791,18.9369462 2.77195728,17.2106787 2.80257465,13.716547 C2.57804728,7.31063877 12.1816954,-1.02952096 17.978584,3.40053894 C18.3561983,3.03656688 18.8766935,2.5166068 19.2543078,2.15263474 C13.0185702,-3.1509581 3.01689624,4.35726549 1.40438145,10.8879641 C0.087834573,14.9332536 2.01672884,19.6128943 6.7420095,19.9872656 C10.6814444,20.3304392 14.4677924,18.2713973 17.1315035,15.5676049 L15.8149566,14.3508983 C14.0595608,16.1291618 11.8449044,17.5746508 9.35469168,18.1154093 L9.35469168,18.1050101 Z"
           id="Path" />
        <path
           d="M20.9382631,5.49077848 L19.3053367,7.09225553 C19.3053367,7.35223557 19.2747193,7.60181641 19.244102,7.86179645 L21.040321,8.09057889 C21.1525847,7.20664675 21.1627904,6.31231541 20.989292,5.44918167 L20.9382631,5.50117768 L20.9382631,5.49077848 Z"
           id="path1" />
        <path
           d="M17.4070598,12.3958484 L18.9175167,13.3733733 C19.4482178,12.5934332 19.9074783,11.7510979 20.2646809,10.8775649 L20.2646809,10.8775649 C20.2646809,10.8775649 20.2646809,10.8775649 20.2646809,10.8775649 L18.5909314,10.2224152 C18.2745519,10.981557 17.8765261,11.7199003 17.4070598,12.4062476 L17.4070598,12.3958484 Z"
           id="path2" />
        <path
           d="M7.33394531,7.48742519 L5.7418421,9.03690624 L11.038647,14.2157087 L24,1.55988025 L22.4078968,0 C19.5298641,2.80778445 13.9779144,8.22576851 11.038647,11.0959482 L7.33394531,7.47702599 L7.33394531,7.48742519 Z"
           id="path3" />
      </g>
      <text
         xml:space="preserve"
         style="font-size:5.33333px;text-align:start;writing-mode:lr-tb;direction:ltr;text-anchor:start;fill:#000000"
         x="15.161584"
         y="293.08191"
         id="text7"><tspan
           sodipodi:role="line"
           x="15.161584"
           y="293.08191"
           style="font-size:5.33333px"
           id="tspan8">SCVD</tspan></text>
      <text
         xml:space="preserve"
         style="font-size:5.33333px;text-align:start;writing-mode:lr-tb;direction:ltr;text-anchor:start;fill:#000000"
         x="14.529267"
         y="297.50812"
         id="text9"><tspan
           sodipodi:role="line"
           id="tspan9"
           x="14.529267"
           y="297.50812">debug</tspan></text>
    </g>
  </g>
</svg>
