<?xml version="1.0" encoding="UTF-8" standalone="no"?>
<svg
   width="24px"
   height="31px"
   viewBox="0 0 24 31"
   version="1.1"
   id="svg7"
   sodipodi:docname="cmsis-scvd-d-icn.svg"
   inkscape:version="1.4.2 (ebf0e940, 2025-05-08)"
   xmlns:inkscape="http://www.inkscape.org/namespaces/inkscape"
   xmlns:sodipodi="http://sodipodi.sourceforge.net/DTD/sodipodi-0.dtd"
   xmlns="http://www.w3.org/2000/svg"
   xmlns:svg="http://www.w3.org/2000/svg">
  <defs
     id="defs7" />
  <sodipodi:namedview
     id="namedview7"
     pagecolor="#ffffff"
     bordercolor="#000000"
     borderopacity="0.25"
     inkscape:showpageshadow="2"
     inkscape:pageopacity="0.0"
     inkscape:pagecheckerboard="0"
     inkscape:deskcolor="#d1d1d1"
     inkscape:zoom="6.7096774"
     inkscape:cx="12.146635"
     inkscape:cy="15.276442"
     inkscape:window-width="1584"
     inkscape:window-height="812"
     inkscape:window-x="201"
     inkscape:window-y="171"
     inkscape:window-maximized="0"
     inkscape:current-layer="svg7" />
  <title
     id="title1">vscode extension icons-4 2</title>
  <g
     id="Icon-development"
     stroke="none"
     stroke-width="1"
     fill="none"
     fill-rule="evenodd"
     fill-opacity="0.8"
     style="display:inline">
    <g
       id="cmsis"
       transform="translate(-12,-268)"
       fill="#ffffff"
       fill-rule="nonzero">
      <g
         id="Group"
         transform="translate(12,268.04071)">
        <path
           d="M 9.3546917,18.10501 C 6.1398679,18.936946 2.7719573,17.210679 2.8025747,13.716547 2.5780473,7.3106388 12.181695,-1.029521 17.978584,3.4005389 18.356198,3.0365669 18.876693,2.5166068 19.254308,2.1526347 13.01857,-3.1509581 3.0168962,4.3572655 1.4043814,10.887964 c -1.31654683,4.04529 0.6123474,8.72493 5.3376281,9.099302 3.9394345,0.343173 7.7257825,-1.715869 10.3894935,-4.419661 l -1.316546,-1.216707 c -1.755396,1.778264 -3.970053,3.223753 -6.4602653,3.764511 z"
           id="Path" />
        <path
           d="m 20.938263,5.4907785 -1.632926,1.601477 c 0,0.2599801 -0.03062,0.5095609 -0.06123,0.7695409 l 1.796219,0.2287825 C 21.152585,7.2066467 21.16279,6.3123154 20.989292,5.4491817 l -0.05103,0.051996 z"
           id="path1" />
        <path
           d="m 17.40706,12.395848 1.510457,0.977525 c 0.530701,-0.77994 0.989961,-1.622275 1.347164,-2.495808 v 0 c 0,0 0,0 0,0 l -1.67375,-0.65515 c -0.316379,0.759142 -0.714405,1.497485 -1.183871,2.183833 z"
           id="path2" />
        <path
           d="M 7.3339453,7.4874252 5.7418421,9.0369062 11.038647,14.215709 24,1.5598802 22.407897,0 C 19.529864,2.8077845 13.977914,8.2257685 11.038647,11.095948 L 7.3339453,7.477026 Z"
           id="path3" />
      </g>
    </g>
  </g>
  <text
     xml:space="preserve"
     style="font-size:5.33333px;text-align:start;writing-mode:lr-tb;direction:ltr;text-anchor:start;fill:#000000;stroke:#000000"
     x="3.875"
     y="23.250002"
     id="text7"><tspan
       sodipodi:role="line"
       id="tspan7"
       x="3.875"
       y="23.250002"
       style="font-style:normal;font-variant:normal;font-weight:normal;font-stretch:normal;font-family:sans-serif;-inkscape-font-specification:sans-serif;fill:#ffffff;stroke:none">SCVD</tspan></text>
  <text
     xml:space="preserve"
     style="font-style:normal;font-variant:normal;font-weight:normal;font-stretch:normal;font-size:5.33333px;font-family:sans-serif;-inkscape-font-specification:sans-serif;text-align:start;writing-mode:lr-tb;direction:ltr;text-anchor:start;fill:#ffffff;stroke:none"
     x="3.4278846"
     y="28.913462"
     id="text8"><tspan
       sodipodi:role="line"
       id="tspan8"
       x="3.4278846"
       y="28.913462">debug</tspan></text>
</svg>
