<?xml version="1.0" encoding="UTF-8" standalone="no"?>
<svg
   width="24"
   height="24"
   viewBox="0 0 24 24"
   fill="none"
   version="1.1"
   id="svg1"
   sodipodi:docname="trace-and-live-light.svg"
   inkscape:version="1.4.2 (ebf0e940, 2025-05-08)"
   xmlns:inkscape="http://www.inkscape.org/namespaces/inkscape"
   xmlns:sodipodi="http://sodipodi.sourceforge.net/DTD/sodipodi-0.dtd"
   xmlns="http://www.w3.org/2000/svg"
   xmlns:svg="http://www.w3.org/2000/svg">
  <sodipodi:namedview
     id="namedview1"
     pagecolor="#ffffff"
     bordercolor="#000000"
     borderopacity="0.25"
     inkscape:showpageshadow="2"
     inkscape:pageopacity="0.0"
     inkscape:pagecheckerboard="0"
     inkscape:deskcolor="#d1d1d1"
     inkscape:zoom="8.6666667"
     inkscape:cx="11.826923"
     inkscape:cy="11.884615"
     inkscape:window-width="1728"
     inkscape:window-height="1381"
     inkscape:window-x="3232"
     inkscape:window-y="31"
     inkscape:window-maximized="0"
     inkscape:current-layer="svg1" />
  <g
     clip-path="url(#clip0)"
     id="g1">
    <path
       d="M 10.9402,13.5 9.62024,14.82 C 9.41948,14.0117 8.954,13.2939 8.29796,12.7809 7.64192,12.2679 6.83306,11.9892 6.00024,11.9892 c -0.83281,0 -1.64167,0.2787 -2.29771,0.7917 -0.65604,0.513 -1.12152,1.2308 -1.32229,2.0391 L 1.06024,13.5 2.44141e-4,14.56 1.72024,16.28 1.50024,16.5 V 18 H 2.44141e-4 v 1.5 H 1.50024 v 0.08 c 0.07651,0.4887 0.21426,0.9658 0.41,1.42 L 2.44141e-4,22.94 1.06024,24 l 1.65,-1.65 c 0.39257,0.5009 0.89118,0.9086 1.46002,1.1938 C 4.7391,23.8291 5.36405,23.9849 6.00024,24 6.63643,23.9849 7.26139,23.8291 7.83023,23.5438 8.39907,23.2586 8.89768,22.8509 9.29024,22.35 l 1.64996,1.65 1.06,-1.06 -1.91,-1.94 c 0.1982,-0.4638 0.336,-0.9511 0.41,-1.45 v -0.1 h 1.5 V 18 h -1.5 v -1.5 l -0.22,-0.22 1.72,-1.72 z m -4.93996,0 c 0.59674,0 1.16904,0.2371 1.59099,0.659 0.42196,0.422 0.65901,0.9943 0.65901,1.591 h -4.5 c 0,-0.5967 0.23706,-1.169 0.65901,-1.591 C 4.83121,13.7371 5.40351,13.5 6.00024,13.5 Z m 3,6 C 8.92698,20.2709 8.58738,20.9921 8.03985,21.5396 7.49232,22.0871 6.77109,22.4267 6.00024,22.5 5.22939,22.4267 4.50817,22.0871 3.96064,21.5396 3.41311,20.9921 3.07351,20.2709 3.00024,19.5 v -2.25 h 6 z M 13.5002,17.37 V 15.6 Z"
       fill="#424242"
       id="path1"
       sodipodi:nodetypes="ccsssccccccccccccccccccccccccccccccsccccscscsccccccc" />
  </g>
  <defs
     id="defs1">
    <clipPath
       id="clip0">
      <rect
         width="24"
         height="24"
         fill="white"
         transform="translate(0.000244141)"
         id="rect1" />
    </clipPath>
  </defs>
  <path
     style="fill:none;fill-opacity:1;stroke:#424242;stroke-width:1.5;stroke-linejoin:bevel;stroke-dasharray:none;stroke-opacity:1"
     d="m 1.1538462,9.1153846 h 5.1923077 l 3.9230771,-7.9615384 6.115384,18.9230768 2.769231,-10.8461538 3.461539,0"
     id="path13" />
</svg>
